<svg id="Group_12849" data-name="Group 12849" xmlns="http://www.w3.org/2000/svg" width="70" height="70" viewBox="0 0 70 70">
  <g id="Group_12848" data-name="Group 12848">
    <path id="Path_18190" data-name="Path 18190" d="M35,0A35,35,0,1,1,0,35,35,35,0,0,1,35,0Z" fill="rgba(18,185,107,0.05)"/>
    <circle id="Ellipse_214" data-name="Ellipse 214" cx="22" cy="22" r="22" transform="translate(13 13)" fill="rgba(18,185,107,0.06)"/>
  </g>
  <g id="_7-Check" data-name="7-Check" transform="translate(25.831 26.52)">
    <g id="Group_12840" data-name="Group 12840" transform="translate(0 0)">
      <path id="Path_12444" data-name="Path 12444" d="M33.933,45.5a1.922,1.922,0,0,0-1.722,1.037,1.739,1.739,0,0,0,.245,1.921L37.311,54.1a1.777,1.777,0,0,0,1.45.611,1.881,1.881,0,0,0,1.461-.821L50.308,38.482l.005-.008a.478.478,0,0,0-.131-.583.553.553,0,0,0-.4-.134.545.545,0,0,0-.378.185l-.011.012L39.22,48.859a.45.45,0,0,1-.306.14.455.455,0,0,1-.32-.108l-3.376-2.915A1.961,1.961,0,0,0,33.933,45.5Z" transform="translate(-32.027 -37.756)" fill="#12b96b"/>
    </g>
  </g>
</svg>
